<!--Scalable Vector Graphic-->
<svg xmlns="http://www.w3.org/2000/svg" 
     xmlns:xlink="http://www.w3.org/1999/xlink"  
     width="850px" 
     height="850px" 
     viewBox="0 0 850px 850px">

<circle fill="none" cx="425" cy="425" r="425"/>
<g>
	<linearGradient id="SVGID_1_" gradientUnits="userSpaceOnUse" x1="463.5027" y1="392.8433" x2="384.3346" y2="255.7201">
		<stop  offset="0" style="stop-color:#1C4865"/>
		<stop  offset="1" style="stop-color:#1B77E2"/>
	</linearGradient>
	<path fill="url(#SVGID_1_)" d="M488.6,301.2H447v-41.6c0-12.8-10.3-23.1-23.1-23.1s-23.1,10.3-23.1,23.1v41.6h-41.6
		c-12.8,0-23.1,10.3-23.1,23.1s10.3,23.1,23.1,23.1h41.6V389c0,12.8,10.3,23.1,23.1,23.1S447,401.8,447,389v-41.6h41.6
		c12.8,0,23.1-10.3,23.1-23.1S501.4,301.2,488.6,301.2z"/>
	<linearGradient id="SVGID_2_" gradientUnits="userSpaceOnUse" x1="572.2791" y1="732.8564" x2="272.588" y2="213.7761">
		<stop  offset="0" style="stop-color:#1C4865"/>
		<stop  offset="1" style="stop-color:#1B77E2"/>
	</linearGradient>
	<path fill="url(#SVGID_2_)" d="M679.5,522.1c12.8,0,23.1-10.3,23.1-23.1V348.8c0-30.1-15.1-57.7-40.5-74l-190.6-122
		c-0.1-0.1-0.2-0.1-0.3-0.2c-28.6-17.8-64.2-17.8-92.8,0c-0.1,0.1-0.2,0.1-0.3,0.2L187.8,274.7c-25.4,16.2-40.5,43.9-40.5,74v258.2
		c0,48.4,39.4,87.8,87.8,87.8h379.7c48.4,0,87.8-39.4,87.8-87.8c0-12.8-10.4-23.1-23.1-23.1c-12.8,0-23.1,10.3-23.1,23.1
		c0,22.9-18.7,41.6-41.6,41.6H235.2c-22.9,0-41.6-18.7-41.6-41.6V379.5l185.1,115.1c14.3,8.9,30.3,13.3,46.4,13.3
		c16,0,32.1-4.4,46.4-13.3l185-115.1V499C656.4,511.8,666.8,522.1,679.5,522.1z M447,455.3c-13.6,8.4-30.4,8.4-43.9,0l-204.2-127
		c3.3-5.9,8-11,13.9-14.7l190.4-121.8c13.5-8.3,30.2-8.3,43.7,0l190.4,121.9c5.9,3.8,10.6,8.8,13.8,14.6L447,455.3z"/>
</g>
</svg>
